G04 #@! TF.GenerationSoftware,KiCad,Pcbnew,7.0.10*
G04 #@! TF.CreationDate,2024-02-18T18:56:30+02:00*
G04 #@! TF.ProjectId,Untitled,556e7469-746c-4656-942e-6b696361645f,rev?*
G04 #@! TF.SameCoordinates,Original*
G04 #@! TF.FileFunction,Soldermask,Top*
G04 #@! TF.FilePolarity,Negative*
%FSLAX46Y46*%
G04 Gerber Fmt 4.6, Leading zero omitted, Abs format (unit mm)*
G04 Created by KiCad (PCBNEW 7.0.10) date 2024-02-18 18:56:30*
%MOMM*%
%LPD*%
G01*
G04 APERTURE LIST*
G04 Aperture macros list*
%AMRoundRect*
0 Rectangle with rounded corners*
0 $1 Rounding radius*
0 $2 $3 $4 $5 $6 $7 $8 $9 X,Y pos of 4 corners*
0 Add a 4 corners polygon primitive as box body*
4,1,4,$2,$3,$4,$5,$6,$7,$8,$9,$2,$3,0*
0 Add four circle primitives for the rounded corners*
1,1,$1+$1,$2,$3*
1,1,$1+$1,$4,$5*
1,1,$1+$1,$6,$7*
1,1,$1+$1,$8,$9*
0 Add four rect primitives between the rounded corners*
20,1,$1+$1,$2,$3,$4,$5,0*
20,1,$1+$1,$4,$5,$6,$7,0*
20,1,$1+$1,$6,$7,$8,$9,0*
20,1,$1+$1,$8,$9,$2,$3,0*%
G04 Aperture macros list end*
%ADD10O,1.200000X2.200000*%
%ADD11O,2.200000X1.200000*%
%ADD12C,1.200000*%
%ADD13C,1.700000*%
%ADD14R,1.700000X1.700000*%
%ADD15C,1.651000*%
%ADD16C,3.240000*%
%ADD17R,1.800000X1.800000*%
%ADD18C,1.800000*%
%ADD19RoundRect,0.237500X-0.250000X-0.237500X0.250000X-0.237500X0.250000X0.237500X-0.250000X0.237500X0*%
%ADD20O,1.700000X1.700000*%
%ADD21R,1.600000X1.600000*%
%ADD22C,1.600000*%
G04 APERTURE END LIST*
D10*
X135000000Y-59500000D03*
D11*
X130000000Y-54500000D03*
D10*
X125000000Y-59500000D03*
D12*
X135000000Y-52000000D03*
X135000000Y-54500000D03*
X130000000Y-59500000D03*
X125000000Y-52000000D03*
X125000000Y-54500000D03*
D13*
X210000000Y-59500000D03*
X216500000Y-59500000D03*
D14*
X210000000Y-55000000D03*
D13*
X216500000Y-55000000D03*
D15*
X66040000Y-55880000D03*
X71120000Y-55880000D03*
D16*
X242300000Y-100500000D03*
X232700000Y-100500000D03*
D17*
X235000000Y-108000000D03*
D18*
X237500000Y-108000000D03*
X240000000Y-108000000D03*
X215000000Y-108000000D03*
X212500000Y-108000000D03*
D17*
X210000000Y-108000000D03*
D16*
X207700000Y-100500000D03*
X217300000Y-100500000D03*
X192300000Y-100500000D03*
X182700000Y-100500000D03*
D17*
X185000000Y-108000000D03*
D18*
X187500000Y-108000000D03*
X190000000Y-108000000D03*
X165000000Y-108000000D03*
X162500000Y-108000000D03*
D17*
X160000000Y-108000000D03*
D16*
X157700000Y-100500000D03*
X167300000Y-100500000D03*
X142300000Y-100500000D03*
X132700000Y-100500000D03*
D17*
X135000000Y-108000000D03*
D18*
X137500000Y-108000000D03*
X140000000Y-108000000D03*
D16*
X117300000Y-100500000D03*
X107700000Y-100500000D03*
D17*
X110000000Y-108000000D03*
D18*
X112500000Y-108000000D03*
X115000000Y-108000000D03*
D16*
X92300000Y-100500000D03*
X82700000Y-100500000D03*
D17*
X85000000Y-108000000D03*
D18*
X87500000Y-108000000D03*
X90000000Y-108000000D03*
D16*
X67300000Y-100500000D03*
X57700000Y-100500000D03*
D17*
X60000000Y-108000000D03*
D18*
X62500000Y-108000000D03*
X65000000Y-108000000D03*
D16*
X242300000Y-70500000D03*
X232700000Y-70500000D03*
D17*
X235000000Y-78000000D03*
D18*
X237500000Y-78000000D03*
X240000000Y-78000000D03*
D16*
X217300000Y-70500000D03*
X207700000Y-70500000D03*
D17*
X210000000Y-78000000D03*
D18*
X212500000Y-78000000D03*
X215000000Y-78000000D03*
D16*
X192300000Y-70500000D03*
X182700000Y-70500000D03*
D17*
X185000000Y-78000000D03*
D18*
X187500000Y-78000000D03*
X190000000Y-78000000D03*
D16*
X167300000Y-70500000D03*
X157700000Y-70500000D03*
D17*
X160000000Y-78000000D03*
D18*
X162500000Y-78000000D03*
X165000000Y-78000000D03*
D16*
X142300000Y-70500000D03*
X132700000Y-70500000D03*
D17*
X135000000Y-78000000D03*
D18*
X137500000Y-78000000D03*
X140000000Y-78000000D03*
X115000000Y-78000000D03*
X112500000Y-78000000D03*
D17*
X110000000Y-78000000D03*
D16*
X107700000Y-70500000D03*
X117300000Y-70500000D03*
X92300000Y-70500000D03*
X82700000Y-70500000D03*
D17*
X85000000Y-78000000D03*
D18*
X87500000Y-78000000D03*
X90000000Y-78000000D03*
D16*
X67300000Y-70500000D03*
X57700000Y-70500000D03*
D17*
X60000000Y-78000000D03*
D18*
X62500000Y-78000000D03*
X65000000Y-78000000D03*
D19*
X224432500Y-63500000D03*
X222607500Y-63500000D03*
X231140000Y-63500000D03*
X229315000Y-63500000D03*
X102592500Y-88900000D03*
X104417500Y-88900000D03*
D14*
X69215000Y-81920000D03*
D20*
X66675000Y-81920000D03*
X69215000Y-84460000D03*
X66675000Y-84460000D03*
X69215000Y-87000000D03*
X66675000Y-87000000D03*
X69215000Y-89540000D03*
X66675000Y-89540000D03*
X69215000Y-92080000D03*
X66675000Y-92080000D03*
D17*
X222000000Y-56000000D03*
D18*
X224540000Y-56000000D03*
X232540000Y-56000000D03*
D17*
X230000000Y-56000000D03*
D21*
X97500000Y-57000000D03*
D22*
X97500000Y-59540000D03*
X97500000Y-62080000D03*
X97500000Y-64620000D03*
X97500000Y-67160000D03*
X97500000Y-69700000D03*
X97500000Y-72240000D03*
X97500000Y-74780000D03*
X97500000Y-77320000D03*
X97500000Y-79860000D03*
X97500000Y-82400000D03*
X97500000Y-84940000D03*
X97500000Y-87480000D03*
X97500000Y-90020000D03*
X97500000Y-92560000D03*
X97500000Y-95100000D03*
X77180000Y-95100000D03*
X77180000Y-92560000D03*
X77180000Y-90020000D03*
X77180000Y-87480000D03*
X77180000Y-84940000D03*
X77180000Y-82400000D03*
X77180000Y-79860000D03*
X77180000Y-77320000D03*
X77180000Y-74780000D03*
X77180000Y-72240000D03*
X77180000Y-69700000D03*
X77180000Y-67160000D03*
M02*
