G04 #@! TF.GenerationSoftware,KiCad,Pcbnew,7.0.10*
G04 #@! TF.CreationDate,2024-02-18T18:56:30+02:00*
G04 #@! TF.ProjectId,Untitled,556e7469-746c-4656-942e-6b696361645f,rev?*
G04 #@! TF.SameCoordinates,Original*
G04 #@! TF.FileFunction,Legend,Bot*
G04 #@! TF.FilePolarity,Positive*
%FSLAX46Y46*%
G04 Gerber Fmt 4.6, Leading zero omitted, Abs format (unit mm)*
G04 Created by KiCad (PCBNEW 7.0.10) date 2024-02-18 18:56:30*
%MOMM*%
%LPD*%
G01*
G04 APERTURE LIST*
G04 Aperture macros list*
%AMRoundRect*
0 Rectangle with rounded corners*
0 $1 Rounding radius*
0 $2 $3 $4 $5 $6 $7 $8 $9 X,Y pos of 4 corners*
0 Add a 4 corners polygon primitive as box body*
4,1,4,$2,$3,$4,$5,$6,$7,$8,$9,$2,$3,0*
0 Add four circle primitives for the rounded corners*
1,1,$1+$1,$2,$3*
1,1,$1+$1,$4,$5*
1,1,$1+$1,$6,$7*
1,1,$1+$1,$8,$9*
0 Add four rect primitives between the rounded corners*
20,1,$1+$1,$2,$3,$4,$5,0*
20,1,$1+$1,$4,$5,$6,$7,0*
20,1,$1+$1,$6,$7,$8,$9,0*
20,1,$1+$1,$8,$9,$2,$3,0*%
G04 Aperture macros list end*
%ADD10C,0.150000*%
%ADD11C,0.120000*%
%ADD12O,1.200000X2.200000*%
%ADD13O,2.200000X1.200000*%
%ADD14C,1.200000*%
%ADD15R,1.560000X0.650000*%
%ADD16RoundRect,0.150000X-0.150000X0.875000X-0.150000X-0.875000X0.150000X-0.875000X0.150000X0.875000X0*%
%ADD17C,1.700000*%
%ADD18R,1.700000X1.700000*%
%ADD19C,1.651000*%
%ADD20C,3.240000*%
%ADD21R,1.800000X1.800000*%
%ADD22C,1.800000*%
%ADD23RoundRect,0.237500X0.250000X0.237500X-0.250000X0.237500X-0.250000X-0.237500X0.250000X-0.237500X0*%
%ADD24RoundRect,0.237500X-0.250000X-0.237500X0.250000X-0.237500X0.250000X0.237500X-0.250000X0.237500X0*%
%ADD25O,1.700000X1.700000*%
%ADD26RoundRect,0.237500X0.300000X0.237500X-0.300000X0.237500X-0.300000X-0.237500X0.300000X-0.237500X0*%
%ADD27RoundRect,0.237500X0.237500X-0.300000X0.237500X0.300000X-0.237500X0.300000X-0.237500X-0.300000X0*%
%ADD28R,1.600000X1.600000*%
%ADD29C,1.600000*%
G04 APERTURE END LIST*
D10*
X130413333Y-56494819D02*
X130413333Y-57209104D01*
X130413333Y-57209104D02*
X130460952Y-57351961D01*
X130460952Y-57351961D02*
X130556190Y-57447200D01*
X130556190Y-57447200D02*
X130699047Y-57494819D01*
X130699047Y-57494819D02*
X130794285Y-57494819D01*
X130032380Y-56494819D02*
X129413333Y-56494819D01*
X129413333Y-56494819D02*
X129746666Y-56875771D01*
X129746666Y-56875771D02*
X129603809Y-56875771D01*
X129603809Y-56875771D02*
X129508571Y-56923390D01*
X129508571Y-56923390D02*
X129460952Y-56971009D01*
X129460952Y-56971009D02*
X129413333Y-57066247D01*
X129413333Y-57066247D02*
X129413333Y-57304342D01*
X129413333Y-57304342D02*
X129460952Y-57399580D01*
X129460952Y-57399580D02*
X129508571Y-57447200D01*
X129508571Y-57447200D02*
X129603809Y-57494819D01*
X129603809Y-57494819D02*
X129889523Y-57494819D01*
X129889523Y-57494819D02*
X129984761Y-57447200D01*
X129984761Y-57447200D02*
X130032380Y-57399580D01*
X111171904Y-53384819D02*
X111171904Y-54194342D01*
X111171904Y-54194342D02*
X111124285Y-54289580D01*
X111124285Y-54289580D02*
X111076666Y-54337200D01*
X111076666Y-54337200D02*
X110981428Y-54384819D01*
X110981428Y-54384819D02*
X110790952Y-54384819D01*
X110790952Y-54384819D02*
X110695714Y-54337200D01*
X110695714Y-54337200D02*
X110648095Y-54289580D01*
X110648095Y-54289580D02*
X110600476Y-54194342D01*
X110600476Y-54194342D02*
X110600476Y-53384819D01*
X110171904Y-53480057D02*
X110124285Y-53432438D01*
X110124285Y-53432438D02*
X110029047Y-53384819D01*
X110029047Y-53384819D02*
X109790952Y-53384819D01*
X109790952Y-53384819D02*
X109695714Y-53432438D01*
X109695714Y-53432438D02*
X109648095Y-53480057D01*
X109648095Y-53480057D02*
X109600476Y-53575295D01*
X109600476Y-53575295D02*
X109600476Y-53670533D01*
X109600476Y-53670533D02*
X109648095Y-53813390D01*
X109648095Y-53813390D02*
X110219523Y-54384819D01*
X110219523Y-54384819D02*
X109600476Y-54384819D01*
X140804819Y-86238095D02*
X141614342Y-86238095D01*
X141614342Y-86238095D02*
X141709580Y-86285714D01*
X141709580Y-86285714D02*
X141757200Y-86333333D01*
X141757200Y-86333333D02*
X141804819Y-86428571D01*
X141804819Y-86428571D02*
X141804819Y-86619047D01*
X141804819Y-86619047D02*
X141757200Y-86714285D01*
X141757200Y-86714285D02*
X141709580Y-86761904D01*
X141709580Y-86761904D02*
X141614342Y-86809523D01*
X141614342Y-86809523D02*
X140804819Y-86809523D01*
X141804819Y-87809523D02*
X141804819Y-87238095D01*
X141804819Y-87523809D02*
X140804819Y-87523809D01*
X140804819Y-87523809D02*
X140947676Y-87428571D01*
X140947676Y-87428571D02*
X141042914Y-87333333D01*
X141042914Y-87333333D02*
X141090533Y-87238095D01*
X141494166Y-59984819D02*
X141827499Y-59508628D01*
X142065594Y-59984819D02*
X142065594Y-58984819D01*
X142065594Y-58984819D02*
X141684642Y-58984819D01*
X141684642Y-58984819D02*
X141589404Y-59032438D01*
X141589404Y-59032438D02*
X141541785Y-59080057D01*
X141541785Y-59080057D02*
X141494166Y-59175295D01*
X141494166Y-59175295D02*
X141494166Y-59318152D01*
X141494166Y-59318152D02*
X141541785Y-59413390D01*
X141541785Y-59413390D02*
X141589404Y-59461009D01*
X141589404Y-59461009D02*
X141684642Y-59508628D01*
X141684642Y-59508628D02*
X142065594Y-59508628D01*
X141113213Y-59080057D02*
X141065594Y-59032438D01*
X141065594Y-59032438D02*
X140970356Y-58984819D01*
X140970356Y-58984819D02*
X140732261Y-58984819D01*
X140732261Y-58984819D02*
X140637023Y-59032438D01*
X140637023Y-59032438D02*
X140589404Y-59080057D01*
X140589404Y-59080057D02*
X140541785Y-59175295D01*
X140541785Y-59175295D02*
X140541785Y-59270533D01*
X140541785Y-59270533D02*
X140589404Y-59413390D01*
X140589404Y-59413390D02*
X141160832Y-59984819D01*
X141160832Y-59984819D02*
X140541785Y-59984819D01*
X118634166Y-62844819D02*
X118967499Y-62368628D01*
X119205594Y-62844819D02*
X119205594Y-61844819D01*
X119205594Y-61844819D02*
X118824642Y-61844819D01*
X118824642Y-61844819D02*
X118729404Y-61892438D01*
X118729404Y-61892438D02*
X118681785Y-61940057D01*
X118681785Y-61940057D02*
X118634166Y-62035295D01*
X118634166Y-62035295D02*
X118634166Y-62178152D01*
X118634166Y-62178152D02*
X118681785Y-62273390D01*
X118681785Y-62273390D02*
X118729404Y-62321009D01*
X118729404Y-62321009D02*
X118824642Y-62368628D01*
X118824642Y-62368628D02*
X119205594Y-62368628D01*
X117681785Y-62844819D02*
X118253213Y-62844819D01*
X117967499Y-62844819D02*
X117967499Y-61844819D01*
X117967499Y-61844819D02*
X118062737Y-61987676D01*
X118062737Y-61987676D02*
X118157975Y-62082914D01*
X118157975Y-62082914D02*
X118253213Y-62130533D01*
X68278333Y-79044819D02*
X68278333Y-79759104D01*
X68278333Y-79759104D02*
X68325952Y-79901961D01*
X68325952Y-79901961D02*
X68421190Y-79997200D01*
X68421190Y-79997200D02*
X68564047Y-80044819D01*
X68564047Y-80044819D02*
X68659285Y-80044819D01*
X67849761Y-79140057D02*
X67802142Y-79092438D01*
X67802142Y-79092438D02*
X67706904Y-79044819D01*
X67706904Y-79044819D02*
X67468809Y-79044819D01*
X67468809Y-79044819D02*
X67373571Y-79092438D01*
X67373571Y-79092438D02*
X67325952Y-79140057D01*
X67325952Y-79140057D02*
X67278333Y-79235295D01*
X67278333Y-79235295D02*
X67278333Y-79330533D01*
X67278333Y-79330533D02*
X67325952Y-79473390D01*
X67325952Y-79473390D02*
X67897380Y-80044819D01*
X67897380Y-80044819D02*
X67278333Y-80044819D01*
X103444166Y-54809580D02*
X103491785Y-54857200D01*
X103491785Y-54857200D02*
X103634642Y-54904819D01*
X103634642Y-54904819D02*
X103729880Y-54904819D01*
X103729880Y-54904819D02*
X103872737Y-54857200D01*
X103872737Y-54857200D02*
X103967975Y-54761961D01*
X103967975Y-54761961D02*
X104015594Y-54666723D01*
X104015594Y-54666723D02*
X104063213Y-54476247D01*
X104063213Y-54476247D02*
X104063213Y-54333390D01*
X104063213Y-54333390D02*
X104015594Y-54142914D01*
X104015594Y-54142914D02*
X103967975Y-54047676D01*
X103967975Y-54047676D02*
X103872737Y-53952438D01*
X103872737Y-53952438D02*
X103729880Y-53904819D01*
X103729880Y-53904819D02*
X103634642Y-53904819D01*
X103634642Y-53904819D02*
X103491785Y-53952438D01*
X103491785Y-53952438D02*
X103444166Y-54000057D01*
X103063213Y-54000057D02*
X103015594Y-53952438D01*
X103015594Y-53952438D02*
X102920356Y-53904819D01*
X102920356Y-53904819D02*
X102682261Y-53904819D01*
X102682261Y-53904819D02*
X102587023Y-53952438D01*
X102587023Y-53952438D02*
X102539404Y-54000057D01*
X102539404Y-54000057D02*
X102491785Y-54095295D01*
X102491785Y-54095295D02*
X102491785Y-54190533D01*
X102491785Y-54190533D02*
X102539404Y-54333390D01*
X102539404Y-54333390D02*
X103110832Y-54904819D01*
X103110832Y-54904819D02*
X102491785Y-54904819D01*
X141489580Y-91680833D02*
X141537200Y-91633214D01*
X141537200Y-91633214D02*
X141584819Y-91490357D01*
X141584819Y-91490357D02*
X141584819Y-91395119D01*
X141584819Y-91395119D02*
X141537200Y-91252262D01*
X141537200Y-91252262D02*
X141441961Y-91157024D01*
X141441961Y-91157024D02*
X141346723Y-91109405D01*
X141346723Y-91109405D02*
X141156247Y-91061786D01*
X141156247Y-91061786D02*
X141013390Y-91061786D01*
X141013390Y-91061786D02*
X140822914Y-91109405D01*
X140822914Y-91109405D02*
X140727676Y-91157024D01*
X140727676Y-91157024D02*
X140632438Y-91252262D01*
X140632438Y-91252262D02*
X140584819Y-91395119D01*
X140584819Y-91395119D02*
X140584819Y-91490357D01*
X140584819Y-91490357D02*
X140632438Y-91633214D01*
X140632438Y-91633214D02*
X140680057Y-91680833D01*
X141584819Y-92633214D02*
X141584819Y-92061786D01*
X141584819Y-92347500D02*
X140584819Y-92347500D01*
X140584819Y-92347500D02*
X140727676Y-92252262D01*
X140727676Y-92252262D02*
X140822914Y-92157024D01*
X140822914Y-92157024D02*
X140870533Y-92061786D01*
X88054285Y-49549104D02*
X87578095Y-49549104D01*
X88149523Y-49834819D02*
X87816190Y-48834819D01*
X87816190Y-48834819D02*
X87482857Y-49834819D01*
X86625714Y-49834819D02*
X87197142Y-49834819D01*
X86911428Y-49834819D02*
X86911428Y-48834819D01*
X86911428Y-48834819D02*
X87006666Y-48977676D01*
X87006666Y-48977676D02*
X87101904Y-49072914D01*
X87101904Y-49072914D02*
X87197142Y-49120533D01*
D11*
X136000000Y-51200000D02*
X134500000Y-51200000D01*
X136000000Y-62200000D02*
X136000000Y-51200000D01*
X134500000Y-50000000D02*
X133000000Y-50000000D01*
X134500000Y-51200000D02*
X134500000Y-50000000D01*
X133000000Y-48200000D02*
X127000000Y-48200000D01*
X133000000Y-50000000D02*
X133000000Y-48200000D01*
X132000000Y-48200000D02*
X132000000Y-51200000D01*
X132000000Y-51200000D02*
X128000000Y-51200000D01*
X128000000Y-51200000D02*
X128000000Y-48200000D01*
X127000000Y-48200000D02*
X127000000Y-50000000D01*
X127000000Y-50000000D02*
X125500000Y-50000000D01*
X125500000Y-50000000D02*
X125500000Y-51200000D01*
X125500000Y-51200000D02*
X124000000Y-51200000D01*
X124000000Y-51200000D02*
X124000000Y-62200000D01*
X124000000Y-62200000D02*
X136000000Y-62200000D01*
X111310000Y-58440000D02*
X109510000Y-58440000D01*
X109510000Y-55220000D02*
X111960000Y-55220000D01*
X157810000Y-90860000D02*
X157545000Y-90860000D01*
X142190000Y-83140000D02*
X142455000Y-83140000D01*
X157810000Y-87000000D02*
X157810000Y-83140000D01*
X142455000Y-83140000D02*
X142455000Y-81325000D01*
X142190000Y-90860000D02*
X142455000Y-90860000D01*
X157810000Y-87000000D02*
X157810000Y-90860000D01*
X142190000Y-87000000D02*
X142190000Y-90860000D01*
X157810000Y-83140000D02*
X157545000Y-83140000D01*
X142190000Y-87000000D02*
X142190000Y-83140000D01*
X141582224Y-61482500D02*
X141072776Y-61482500D01*
X141582224Y-60437500D02*
X141072776Y-60437500D01*
X118212776Y-60437500D02*
X118722224Y-60437500D01*
X118212776Y-61482500D02*
X118722224Y-61482500D01*
X70545000Y-81920000D02*
X70545000Y-80590000D01*
X70545000Y-83190000D02*
X70545000Y-93410000D01*
X67945000Y-80590000D02*
X65345000Y-80590000D01*
X70545000Y-83190000D02*
X67945000Y-83190000D01*
X70545000Y-80590000D02*
X69215000Y-80590000D01*
X67945000Y-83190000D02*
X67945000Y-80590000D01*
X70545000Y-93410000D02*
X65345000Y-93410000D01*
X65345000Y-80590000D02*
X65345000Y-93410000D01*
X103423767Y-55370000D02*
X103131233Y-55370000D01*
X103423767Y-56390000D02*
X103131233Y-56390000D01*
X139190000Y-91993767D02*
X139190000Y-91701233D01*
X140210000Y-91993767D02*
X140210000Y-91701233D01*
X75800000Y-53190000D02*
X75800000Y-98910000D01*
X98880000Y-53190000D02*
X98880000Y-98910000D01*
X78450000Y-101560000D02*
X96230000Y-101560000D01*
X99200000Y-58000000D02*
X99200000Y-56000000D01*
X78450000Y-50540000D02*
X96230000Y-50540000D01*
X96230000Y-101560000D02*
G75*
G03*
X98880000Y-98910000I0J2650000D01*
G01*
X98880000Y-53190000D02*
G75*
G03*
X96230000Y-50540000I-2650000J0D01*
G01*
X78450000Y-50540000D02*
G75*
G03*
X75800000Y-53190000I0J-2650000D01*
G01*
X75800000Y-98910000D02*
G75*
G03*
X78450000Y-101560000I2650000J0D01*
G01*
%LPC*%
D12*
X135000000Y-59500000D03*
D13*
X130000000Y-54500000D03*
D12*
X125000000Y-59500000D03*
D14*
X135000000Y-52000000D03*
X135000000Y-54500000D03*
X130000000Y-59500000D03*
X125000000Y-52000000D03*
X125000000Y-54500000D03*
D15*
X109060000Y-55880000D03*
X109060000Y-57780000D03*
X111760000Y-57780000D03*
X111760000Y-56830000D03*
X111760000Y-55880000D03*
D16*
X143015000Y-82350000D03*
X144285000Y-82350000D03*
X145555000Y-82350000D03*
X146825000Y-82350000D03*
X148095000Y-82350000D03*
X149365000Y-82350000D03*
X150635000Y-82350000D03*
X151905000Y-82350000D03*
X153175000Y-82350000D03*
X154445000Y-82350000D03*
X155715000Y-82350000D03*
X156985000Y-82350000D03*
X156985000Y-91650000D03*
X155715000Y-91650000D03*
X154445000Y-91650000D03*
X153175000Y-91650000D03*
X151905000Y-91650000D03*
X150635000Y-91650000D03*
X149365000Y-91650000D03*
X148095000Y-91650000D03*
X146825000Y-91650000D03*
X145555000Y-91650000D03*
X144285000Y-91650000D03*
X143015000Y-91650000D03*
D17*
X210000000Y-59500000D03*
X216500000Y-59500000D03*
D18*
X210000000Y-55000000D03*
D17*
X216500000Y-55000000D03*
D19*
X66040000Y-55880000D03*
X71120000Y-55880000D03*
D20*
X242300000Y-100500000D03*
X232700000Y-100500000D03*
D21*
X235000000Y-108000000D03*
D22*
X237500000Y-108000000D03*
X240000000Y-108000000D03*
X215000000Y-108000000D03*
X212500000Y-108000000D03*
D21*
X210000000Y-108000000D03*
D20*
X207700000Y-100500000D03*
X217300000Y-100500000D03*
X192300000Y-100500000D03*
X182700000Y-100500000D03*
D21*
X185000000Y-108000000D03*
D22*
X187500000Y-108000000D03*
X190000000Y-108000000D03*
X165000000Y-108000000D03*
X162500000Y-108000000D03*
D21*
X160000000Y-108000000D03*
D20*
X157700000Y-100500000D03*
X167300000Y-100500000D03*
X142300000Y-100500000D03*
X132700000Y-100500000D03*
D21*
X135000000Y-108000000D03*
D22*
X137500000Y-108000000D03*
X140000000Y-108000000D03*
D20*
X117300000Y-100500000D03*
X107700000Y-100500000D03*
D21*
X110000000Y-108000000D03*
D22*
X112500000Y-108000000D03*
X115000000Y-108000000D03*
D20*
X92300000Y-100500000D03*
X82700000Y-100500000D03*
D21*
X85000000Y-108000000D03*
D22*
X87500000Y-108000000D03*
X90000000Y-108000000D03*
D20*
X67300000Y-100500000D03*
X57700000Y-100500000D03*
D21*
X60000000Y-108000000D03*
D22*
X62500000Y-108000000D03*
X65000000Y-108000000D03*
D20*
X242300000Y-70500000D03*
X232700000Y-70500000D03*
D21*
X235000000Y-78000000D03*
D22*
X237500000Y-78000000D03*
X240000000Y-78000000D03*
D20*
X217300000Y-70500000D03*
X207700000Y-70500000D03*
D21*
X210000000Y-78000000D03*
D22*
X212500000Y-78000000D03*
X215000000Y-78000000D03*
D20*
X192300000Y-70500000D03*
X182700000Y-70500000D03*
D21*
X185000000Y-78000000D03*
D22*
X187500000Y-78000000D03*
X190000000Y-78000000D03*
D20*
X167300000Y-70500000D03*
X157700000Y-70500000D03*
D21*
X160000000Y-78000000D03*
D22*
X162500000Y-78000000D03*
X165000000Y-78000000D03*
D20*
X142300000Y-70500000D03*
X132700000Y-70500000D03*
D21*
X135000000Y-78000000D03*
D22*
X137500000Y-78000000D03*
X140000000Y-78000000D03*
X115000000Y-78000000D03*
X112500000Y-78000000D03*
D21*
X110000000Y-78000000D03*
D20*
X107700000Y-70500000D03*
X117300000Y-70500000D03*
X92300000Y-70500000D03*
X82700000Y-70500000D03*
D21*
X85000000Y-78000000D03*
D22*
X87500000Y-78000000D03*
X90000000Y-78000000D03*
D20*
X67300000Y-70500000D03*
X57700000Y-70500000D03*
D21*
X60000000Y-78000000D03*
D22*
X62500000Y-78000000D03*
X65000000Y-78000000D03*
D23*
X140415000Y-60960000D03*
X142240000Y-60960000D03*
D24*
X119380000Y-60960000D03*
X117555000Y-60960000D03*
D18*
X69215000Y-81920000D03*
D25*
X66675000Y-81920000D03*
X69215000Y-84460000D03*
X66675000Y-84460000D03*
X69215000Y-87000000D03*
X66675000Y-87000000D03*
X69215000Y-89540000D03*
X66675000Y-89540000D03*
X69215000Y-92080000D03*
X66675000Y-92080000D03*
D21*
X222000000Y-56000000D03*
D22*
X224540000Y-56000000D03*
X232540000Y-56000000D03*
D21*
X230000000Y-56000000D03*
D26*
X104140000Y-55880000D03*
X102415000Y-55880000D03*
D27*
X139700000Y-90985000D03*
X139700000Y-92710000D03*
D28*
X97500000Y-57000000D03*
D29*
X97500000Y-59540000D03*
X97500000Y-62080000D03*
X97500000Y-64620000D03*
X97500000Y-67160000D03*
X97500000Y-69700000D03*
X97500000Y-72240000D03*
X97500000Y-74780000D03*
X97500000Y-77320000D03*
X97500000Y-79860000D03*
X97500000Y-82400000D03*
X97500000Y-84940000D03*
X97500000Y-87480000D03*
X97500000Y-90020000D03*
X97500000Y-92560000D03*
X97500000Y-95100000D03*
X77180000Y-95100000D03*
X77180000Y-92560000D03*
X77180000Y-90020000D03*
X77180000Y-87480000D03*
X77180000Y-84940000D03*
X77180000Y-82400000D03*
X77180000Y-79860000D03*
X77180000Y-77320000D03*
X77180000Y-74780000D03*
X77180000Y-72240000D03*
X77180000Y-69700000D03*
X77180000Y-67160000D03*
%LPD*%
M02*
