M48
; DRILL file {KiCad 7.0.10} date Sunday, February 18, 2024 at 06:56:37 PM
; FORMAT={-:-/ absolute / metric / decimal}
; #@! TF.CreationDate,2024-02-18T18:56:37+02:00
; #@! TF.GenerationSoftware,Kicad,Pcbnew,7.0.10
; #@! TF.FileFunction,Plated,1,2,PTH
FMAT,2
METRIC
; #@! TA.AperFunction,Plated,PTH,ViaDrill
T1C0.400
; #@! TA.AperFunction,Plated,PTH,ComponentDrill
T2C0.400
; #@! TA.AperFunction,Plated,PTH,ComponentDrill
T3C0.800
; #@! TA.AperFunction,Plated,PTH,ComponentDrill
T4C0.889
; #@! TA.AperFunction,Plated,PTH,ComponentDrill
T5C0.900
; #@! TA.AperFunction,Plated,PTH,ComponentDrill
T6C1.000
; #@! TA.AperFunction,Plated,PTH,ComponentDrill
T7C1.800
%
G90
G05
T1
X55.982Y-82.017
X69.215Y-64.135
X69.85Y-97.79
X81.915Y-90.17
X87.63Y-64.77
X93.345Y-83.82
X100.33Y-70.485
X100.965Y-87.63
X101.6Y-71.12
X102.834Y-71.156
X104.14Y-58.42
X105.41Y-62.23
X105.41Y-75.565
X106.68Y-57.785
X108.585Y-92.71
X109.22Y-64.77
X110.49Y-66.675
X110.49Y-71.72
X135.89Y-87.63
X135.89Y-90.805
X136.525Y-83.185
X149.86Y-85.09
X154.305Y-102.87
X154.445Y-93.84
X154.94Y-85.09
T3
X77.18Y-67.16
X77.18Y-69.7
X77.18Y-72.24
X77.18Y-74.78
X77.18Y-77.32
X77.18Y-79.86
X77.18Y-82.4
X77.18Y-84.94
X77.18Y-87.48
X77.18Y-90.02
X77.18Y-92.56
X77.18Y-95.1
X97.5Y-57.0
X97.5Y-59.54
X97.5Y-62.08
X97.5Y-64.62
X97.5Y-67.16
X97.5Y-69.7
X97.5Y-72.24
X97.5Y-74.78
X97.5Y-77.32
X97.5Y-79.86
X97.5Y-82.4
X97.5Y-84.94
X97.5Y-87.48
X97.5Y-90.02
X97.5Y-92.56
X97.5Y-95.1
T4
X66.04Y-55.88
X71.12Y-55.88
T5
X222.0Y-56.0
X224.54Y-56.0
X230.0Y-56.0
X232.54Y-56.0
T6
X60.0Y-78.0
X60.0Y-108.0
X62.5Y-78.0
X62.5Y-108.0
X65.0Y-78.0
X65.0Y-108.0
X66.675Y-81.92
X66.675Y-84.46
X66.675Y-87.0
X66.675Y-89.54
X66.675Y-92.08
X69.215Y-81.92
X69.215Y-84.46
X69.215Y-87.0
X69.215Y-89.54
X69.215Y-92.08
X85.0Y-78.0
X85.0Y-108.0
X87.5Y-78.0
X87.5Y-108.0
X90.0Y-78.0
X90.0Y-108.0
X110.0Y-78.0
X110.0Y-108.0
X112.5Y-78.0
X112.5Y-108.0
X115.0Y-78.0
X115.0Y-108.0
X135.0Y-78.0
X135.0Y-108.0
X137.5Y-78.0
X137.5Y-108.0
X140.0Y-78.0
X140.0Y-108.0
X160.0Y-78.0
X160.0Y-108.0
X162.5Y-78.0
X162.5Y-108.0
X165.0Y-78.0
X165.0Y-108.0
X185.0Y-78.0
X185.0Y-108.0
X187.5Y-78.0
X187.5Y-108.0
X190.0Y-78.0
X190.0Y-108.0
X210.0Y-55.0
X210.0Y-59.5
X210.0Y-78.0
X210.0Y-108.0
X212.5Y-78.0
X212.5Y-108.0
X215.0Y-78.0
X215.0Y-108.0
X216.5Y-55.0
X216.5Y-59.5
X235.0Y-78.0
X235.0Y-108.0
X237.5Y-78.0
X237.5Y-108.0
X240.0Y-78.0
X240.0Y-108.0
T7
X57.7Y-70.5
X57.7Y-100.5
X67.3Y-70.5
X67.3Y-100.5
X82.7Y-70.5
X82.7Y-100.5
X92.3Y-70.5
X92.3Y-100.5
X107.7Y-70.5
X107.7Y-100.5
X117.3Y-70.5
X117.3Y-100.5
X132.7Y-70.5
X132.7Y-100.5
X142.3Y-70.5
X142.3Y-100.5
X157.7Y-70.5
X157.7Y-100.5
X167.3Y-70.5
X167.3Y-100.5
X182.7Y-70.5
X182.7Y-100.5
X192.3Y-70.5
X192.3Y-100.5
X207.7Y-70.5
X207.7Y-100.5
X217.3Y-70.5
X217.3Y-100.5
X232.7Y-70.5
X232.7Y-100.5
X242.3Y-70.5
X242.3Y-100.5
T2
X125.0Y-59.0G85X125.0Y-60.0
G05
X129.5Y-54.5G85X130.5Y-54.5
G05
X135.0Y-60.0G85X135.0Y-59.0
G05
M30
