G04 #@! TF.GenerationSoftware,KiCad,Pcbnew,7.0.10*
G04 #@! TF.CreationDate,2024-02-18T18:56:30+02:00*
G04 #@! TF.ProjectId,Untitled,556e7469-746c-4656-942e-6b696361645f,rev?*
G04 #@! TF.SameCoordinates,Original*
G04 #@! TF.FileFunction,Soldermask,Bot*
G04 #@! TF.FilePolarity,Negative*
%FSLAX46Y46*%
G04 Gerber Fmt 4.6, Leading zero omitted, Abs format (unit mm)*
G04 Created by KiCad (PCBNEW 7.0.10) date 2024-02-18 18:56:30*
%MOMM*%
%LPD*%
G01*
G04 APERTURE LIST*
G04 Aperture macros list*
%AMRoundRect*
0 Rectangle with rounded corners*
0 $1 Rounding radius*
0 $2 $3 $4 $5 $6 $7 $8 $9 X,Y pos of 4 corners*
0 Add a 4 corners polygon primitive as box body*
4,1,4,$2,$3,$4,$5,$6,$7,$8,$9,$2,$3,0*
0 Add four circle primitives for the rounded corners*
1,1,$1+$1,$2,$3*
1,1,$1+$1,$4,$5*
1,1,$1+$1,$6,$7*
1,1,$1+$1,$8,$9*
0 Add four rect primitives between the rounded corners*
20,1,$1+$1,$2,$3,$4,$5,0*
20,1,$1+$1,$4,$5,$6,$7,0*
20,1,$1+$1,$6,$7,$8,$9,0*
20,1,$1+$1,$8,$9,$2,$3,0*%
G04 Aperture macros list end*
%ADD10O,1.200000X2.200000*%
%ADD11O,2.200000X1.200000*%
%ADD12C,1.200000*%
%ADD13R,1.560000X0.650000*%
%ADD14RoundRect,0.150000X-0.150000X0.875000X-0.150000X-0.875000X0.150000X-0.875000X0.150000X0.875000X0*%
%ADD15C,1.700000*%
%ADD16R,1.700000X1.700000*%
%ADD17C,1.651000*%
%ADD18C,3.240000*%
%ADD19R,1.800000X1.800000*%
%ADD20C,1.800000*%
%ADD21RoundRect,0.237500X0.250000X0.237500X-0.250000X0.237500X-0.250000X-0.237500X0.250000X-0.237500X0*%
%ADD22RoundRect,0.237500X-0.250000X-0.237500X0.250000X-0.237500X0.250000X0.237500X-0.250000X0.237500X0*%
%ADD23O,1.700000X1.700000*%
%ADD24RoundRect,0.237500X0.300000X0.237500X-0.300000X0.237500X-0.300000X-0.237500X0.300000X-0.237500X0*%
%ADD25RoundRect,0.237500X0.237500X-0.300000X0.237500X0.300000X-0.237500X0.300000X-0.237500X-0.300000X0*%
%ADD26R,1.600000X1.600000*%
%ADD27C,1.600000*%
G04 APERTURE END LIST*
D10*
X135000000Y-59500000D03*
D11*
X130000000Y-54500000D03*
D10*
X125000000Y-59500000D03*
D12*
X135000000Y-52000000D03*
X135000000Y-54500000D03*
X130000000Y-59500000D03*
X125000000Y-52000000D03*
X125000000Y-54500000D03*
D13*
X109060000Y-55880000D03*
X109060000Y-57780000D03*
X111760000Y-57780000D03*
X111760000Y-56830000D03*
X111760000Y-55880000D03*
D14*
X143015000Y-82350000D03*
X144285000Y-82350000D03*
X145555000Y-82350000D03*
X146825000Y-82350000D03*
X148095000Y-82350000D03*
X149365000Y-82350000D03*
X150635000Y-82350000D03*
X151905000Y-82350000D03*
X153175000Y-82350000D03*
X154445000Y-82350000D03*
X155715000Y-82350000D03*
X156985000Y-82350000D03*
X156985000Y-91650000D03*
X155715000Y-91650000D03*
X154445000Y-91650000D03*
X153175000Y-91650000D03*
X151905000Y-91650000D03*
X150635000Y-91650000D03*
X149365000Y-91650000D03*
X148095000Y-91650000D03*
X146825000Y-91650000D03*
X145555000Y-91650000D03*
X144285000Y-91650000D03*
X143015000Y-91650000D03*
D15*
X210000000Y-59500000D03*
X216500000Y-59500000D03*
D16*
X210000000Y-55000000D03*
D15*
X216500000Y-55000000D03*
D17*
X66040000Y-55880000D03*
X71120000Y-55880000D03*
D18*
X242300000Y-100500000D03*
X232700000Y-100500000D03*
D19*
X235000000Y-108000000D03*
D20*
X237500000Y-108000000D03*
X240000000Y-108000000D03*
X215000000Y-108000000D03*
X212500000Y-108000000D03*
D19*
X210000000Y-108000000D03*
D18*
X207700000Y-100500000D03*
X217300000Y-100500000D03*
X192300000Y-100500000D03*
X182700000Y-100500000D03*
D19*
X185000000Y-108000000D03*
D20*
X187500000Y-108000000D03*
X190000000Y-108000000D03*
X165000000Y-108000000D03*
X162500000Y-108000000D03*
D19*
X160000000Y-108000000D03*
D18*
X157700000Y-100500000D03*
X167300000Y-100500000D03*
X142300000Y-100500000D03*
X132700000Y-100500000D03*
D19*
X135000000Y-108000000D03*
D20*
X137500000Y-108000000D03*
X140000000Y-108000000D03*
D18*
X117300000Y-100500000D03*
X107700000Y-100500000D03*
D19*
X110000000Y-108000000D03*
D20*
X112500000Y-108000000D03*
X115000000Y-108000000D03*
D18*
X92300000Y-100500000D03*
X82700000Y-100500000D03*
D19*
X85000000Y-108000000D03*
D20*
X87500000Y-108000000D03*
X90000000Y-108000000D03*
D18*
X67300000Y-100500000D03*
X57700000Y-100500000D03*
D19*
X60000000Y-108000000D03*
D20*
X62500000Y-108000000D03*
X65000000Y-108000000D03*
D18*
X242300000Y-70500000D03*
X232700000Y-70500000D03*
D19*
X235000000Y-78000000D03*
D20*
X237500000Y-78000000D03*
X240000000Y-78000000D03*
D18*
X217300000Y-70500000D03*
X207700000Y-70500000D03*
D19*
X210000000Y-78000000D03*
D20*
X212500000Y-78000000D03*
X215000000Y-78000000D03*
D18*
X192300000Y-70500000D03*
X182700000Y-70500000D03*
D19*
X185000000Y-78000000D03*
D20*
X187500000Y-78000000D03*
X190000000Y-78000000D03*
D18*
X167300000Y-70500000D03*
X157700000Y-70500000D03*
D19*
X160000000Y-78000000D03*
D20*
X162500000Y-78000000D03*
X165000000Y-78000000D03*
D18*
X142300000Y-70500000D03*
X132700000Y-70500000D03*
D19*
X135000000Y-78000000D03*
D20*
X137500000Y-78000000D03*
X140000000Y-78000000D03*
X115000000Y-78000000D03*
X112500000Y-78000000D03*
D19*
X110000000Y-78000000D03*
D18*
X107700000Y-70500000D03*
X117300000Y-70500000D03*
X92300000Y-70500000D03*
X82700000Y-70500000D03*
D19*
X85000000Y-78000000D03*
D20*
X87500000Y-78000000D03*
X90000000Y-78000000D03*
D18*
X67300000Y-70500000D03*
X57700000Y-70500000D03*
D19*
X60000000Y-78000000D03*
D20*
X62500000Y-78000000D03*
X65000000Y-78000000D03*
D21*
X140415000Y-60960000D03*
X142240000Y-60960000D03*
D22*
X119380000Y-60960000D03*
X117555000Y-60960000D03*
D16*
X69215000Y-81920000D03*
D23*
X66675000Y-81920000D03*
X69215000Y-84460000D03*
X66675000Y-84460000D03*
X69215000Y-87000000D03*
X66675000Y-87000000D03*
X69215000Y-89540000D03*
X66675000Y-89540000D03*
X69215000Y-92080000D03*
X66675000Y-92080000D03*
D19*
X222000000Y-56000000D03*
D20*
X224540000Y-56000000D03*
X232540000Y-56000000D03*
D19*
X230000000Y-56000000D03*
D24*
X104140000Y-55880000D03*
X102415000Y-55880000D03*
D25*
X139700000Y-90985000D03*
X139700000Y-92710000D03*
D26*
X97500000Y-57000000D03*
D27*
X97500000Y-59540000D03*
X97500000Y-62080000D03*
X97500000Y-64620000D03*
X97500000Y-67160000D03*
X97500000Y-69700000D03*
X97500000Y-72240000D03*
X97500000Y-74780000D03*
X97500000Y-77320000D03*
X97500000Y-79860000D03*
X97500000Y-82400000D03*
X97500000Y-84940000D03*
X97500000Y-87480000D03*
X97500000Y-90020000D03*
X97500000Y-92560000D03*
X97500000Y-95100000D03*
X77180000Y-95100000D03*
X77180000Y-92560000D03*
X77180000Y-90020000D03*
X77180000Y-87480000D03*
X77180000Y-84940000D03*
X77180000Y-82400000D03*
X77180000Y-79860000D03*
X77180000Y-77320000D03*
X77180000Y-74780000D03*
X77180000Y-72240000D03*
X77180000Y-69700000D03*
X77180000Y-67160000D03*
M02*
